<?xml version="1.0" encoding="UTF-8"?>
<svg width="15px" height="15px" viewBox="0 0 15 15" version="1.1" xmlns="http://www.w3.org/2000/svg" xmlns:xlink="http://www.w3.org/1999/xlink">
    <!-- Generator: sketchtool 41 (35326) - http://www.bohemiancoding.com/sketch -->
    <title>A7CF8D4B-017D-4104-8818-87E46D04853C</title>
    <desc>Created with sketchtool.</desc>
    <defs></defs>
    <g id="Desktop" stroke="none" stroke-width="1" fill="none" fill-rule="evenodd">
        <g id="Sportskeeda---Premier-League-page-1" transform="translate(-1176.000000, -22.000000)" fill="#828282">
            <g id="Search-tool-gray" transform="translate(1176.000000, 22.000000)">
                <path d="M9.47653436,10.8907479 C8.49571549,11.589209 7.29583043,12 6,12 C2.6862915,12 0,9.3137085 0,6 C0,2.6862915 2.6862915,0 6,0 C9.3137085,0 12,2.6862915 12,6 C12,7.29583043 11.589209,8.49571549 10.8907479,9.47653436 L14.4644534,13.0502398 C14.8549777,13.4407641 14.8549777,14.0739291 14.4644534,14.4644534 C14.0739291,14.8549777 13.4407641,14.8549777 13.0502398,14.4644534 L9.47653436,10.8907479 L9.47653436,10.8907479 Z M6,10 C8.209139,10 10,8.209139 10,6 C10,3.790861 8.209139,2 6,2 C3.790861,2 2,3.790861 2,6 C2,8.209139 3.790861,10 6,10 Z"></path>
            </g>
        </g>
    </g>
</svg>